<?xml version="1.0" encoding="utf-8"?>
<!-- Generator: Adobe Illustrator 17.1.0, SVG Export Plug-In . SVG Version: 6.00 Build 0)  -->
<!DOCTYPE svg PUBLIC "-//W3C//DTD SVG 1.1//EN" "http://www.w3.org/Graphics/SVG/1.1/DTD/svg11.dtd">
<svg version="1.1" id="Layer_1" xmlns="http://www.w3.org/2000/svg" xmlns:xlink="http://www.w3.org/1999/xlink" x="0px" y="0px"
	 viewBox="0 0 257.6 70.1" enable-background="new 0 0 257.6 70.1" xml:space="preserve">
<path fill="#F78C1F" d="M45.9,10.5c0-0.9,0.8-1.7,1.8-1.7c1,0,1.9,0.7,1.9,1.7c0,0.9-0.8,1.7-1.8,1.7C46.8,12.2,46,11.4,45.9,10.5z
	 M39.2,32.7l2.9,5.5c-1.7-10.7,4.4-15.7,11.8-15.6c3.6,0.1,11.6,3.2,15.1,3.3c10.3,0.3,18.4-18.6,7.4-16.5
	c-5.7,1.1-15.8,2.8-20.5-1.2C33.9-12-3.7,7.8,0.3,39.4C2.6,57.7,16,71.7,37.5,70c7.8-0.6,14.6-3.5,20.2-8.7c6.5-6,9.7-13.3,9.7-22.1
	c0-2.4-0.8-4.4-2.5-5.9c-10.4-7.4-18.4,0.4-20,9.7c-2.3,12.8-11,23.5-21.5,18.6c-4.4-2-7.3-6-4.9-10.4c3.2-5.7,11.6,0.4,15.8-1.2
	C14.5,41.3,32.7,20.4,39.2,32.7L39.2,32.7z"/>
<path fill="#8C8C8C" d="M252.7,22.4v28.9h3.7V22.4H252.7z M129,36.8c0-4.2-1.4-7.7-4.3-10.7c-2.9-3-6.4-4.4-10.6-4.4
	c-4.7,0-8.5,2-11.5,6v-5.3H99v39.4h3.7V46.3c3.1,3.8,7,5.7,11.6,5.7c4.2,0,7.7-1.5,10.6-4.5C127.6,44.6,129,41,129,36.8L129,36.8z
	 M119.6,26.8c1.8,1,3.2,2.4,4.2,4.3c1,1.8,1.5,3.8,1.5,5.8c0,2-0.5,4-1.5,5.8c-1,1.8-2.4,3.3-4.1,4.3c-1.8,1.1-3.7,1.6-5.7,1.6
	c-2,0-4-0.5-5.8-1.5c-3.8-2.1-5.7-5.5-5.7-10.1c0-3.3,1.1-6.1,3.3-8.4c2.2-2.3,4.9-3.4,8.2-3.4C115.9,25.3,117.8,25.8,119.6,26.8
	L119.6,26.8z M131.6,11.3v40h3.7v-40H131.6z M152.8,21.7c-4.2,0-7.7,1.5-10.6,4.4c-2.9,3-4.3,6.5-4.3,10.7c0,4.2,1.4,7.8,4.2,10.7
	c2.9,3,6.4,4.5,10.6,4.5c4.6,0,8.5-1.9,11.6-5.7v5h3.7V22.4h-3.7v5.3C161.4,23.7,157.5,21.7,152.8,21.7L152.8,21.7z M153.1,25.3
	c3.3,0,6,1.1,8.2,3.4c2.2,2.3,3.3,5.1,3.3,8.4c0,2.2-0.5,4.2-1.5,5.9c-1,1.7-2.4,3.1-4.2,4.2c-1.8,1-3.7,1.5-5.8,1.5
	c-2,0-3.9-0.5-5.7-1.5c-1.8-1-3.2-2.5-4.2-4.3c-1-1.8-1.6-3.8-1.6-5.9c0-2,0.5-4,1.6-5.8C145.3,27.2,148.6,25.3,153.1,25.3
	L153.1,25.3z M171,22.4v3.2h5.1v25.7h3.7V25.6h7.3l-1.4-3.2h-5.9V11.7h-3.7v10.7H171z M188.8,22.4l11.9,26.7l-5.6,12.7h3.9
	l17.2-39.4h-3.9l-9.6,22.2l-9.9-22.2H188.8z M249.3,36.8c0-4.2-1.4-7.7-4.3-10.7c-2.9-3-6.4-4.4-10.6-4.4c-4.7,0-8.5,2-11.5,6v-5.3
	h-3.7v39.4h3.7V46.3c3.1,3.8,7,5.7,11.6,5.7c4.2,0,7.7-1.5,10.6-4.5C247.9,44.6,249.3,41,249.3,36.8L249.3,36.8z M239.8,26.8
	c1.8,1,3.2,2.4,4.2,4.3c1,1.8,1.5,3.8,1.5,5.8c0,2-0.5,4-1.5,5.8c-1,1.8-2.4,3.3-4.1,4.3c-1.8,1.1-3.7,1.6-5.7,1.6
	c-2,0-4-0.5-5.8-1.5c-3.8-2.1-5.7-5.5-5.7-10.1c0-3.3,1.1-6.1,3.2-8.4c2.2-2.3,4.9-3.4,8.2-3.4C236.1,25.3,238.1,25.8,239.8,26.8z"
	/>
<path fill="#F78C1F" d="M251.5,13.6c0,0.8,0.3,1.5,0.9,2.1c0.6,0.6,1.3,0.9,2.1,0.9c0.9,0,1.6-0.3,2.2-0.9c0.6-0.6,0.9-1.3,0.9-2.2
	c0-0.9-0.3-1.6-0.9-2.2c-0.6-0.6-1.3-0.9-2.2-0.9c-0.9,0-1.6,0.3-2.2,0.9C251.8,12.1,251.5,12.8,251.5,13.6L251.5,13.6z"/>
</svg>
